<?xml version="1.0" encoding="UTF-8"?>
<svg version="1.1" xmlns="http://www.w3.org/2000/svg" width="767" height="448">
<path d="M0 0 C253.11 0 506.22 0 767 0 C767 147.84 767 295.68 767 448 C513.89 448 260.78 448 0 448 C0 300.16 0 152.32 0 0 Z " fill="#202023" transform="translate(0,0)"/>
<path d="M0 0 C5.47932789 1.54545146 10.11429181 4.15543212 15 7 C15 7.66 15 8.32 15 9 C14.03400879 9.46784912 13.06801758 9.93569824 12.07275391 10.41772461 C9.20333558 11.80768686 6.33445821 13.19875989 3.46582031 14.59033203 C0.234661 16.15773451 -2.99794778 17.72209554 -6.23144531 19.28466797 C-16.21600297 24.11187544 -16.21600297 24.11187544 -26.0859375 29.16796875 C-26.90143066 29.59537354 -27.71692383 30.02277832 -28.55712891 30.46313477 C-29.96622889 31.20972871 -31.3677904 31.97082751 -32.75927734 32.74975586 C-37.34825975 35.17262714 -39.98774336 35.05704308 -45 34 C-48.16704175 32.89271768 -51.22308056 31.56948359 -54.29296875 30.21875 C-55.16141922 29.84520386 -56.02986969 29.47165771 -56.92463684 29.08679199 C-59.68243109 27.89912346 -62.43513851 26.70019825 -65.1875 25.5 C-67.95134968 24.30171446 -70.71621317 23.10586081 -73.48249817 21.91320801 C-75.19917912 21.17236449 -76.91432612 20.42795384 -78.62773132 19.67956543 C-79.40566544 19.34251587 -80.18359955 19.00546631 -80.98510742 18.65820312 C-81.66570724 18.36143677 -82.34630707 18.06467041 -83.04753113 17.75891113 C-85.01178604 16.99541885 -86.94656283 16.46533612 -89 16 C-90.16343227 18.32686453 -90.19895988 19.84721413 -90.25 22.4375 C-90.27578125 23.21996094 -90.3015625 24.00242187 -90.328125 24.80859375 C-89.91320154 27.5796897 -89.09789355 28.19260422 -87 30 C-85.1026782 31.1116724 -85.1026782 31.1116724 -82.97509766 32.05297852 C-82.17061188 32.42669083 -81.3661261 32.80040314 -80.53726196 33.18544006 C-79.67160614 33.57928391 -78.80595032 33.97312775 -77.9140625 34.37890625 C-77.02012787 34.79164291 -76.12619324 35.20437958 -75.20516968 35.62962341 C-72.34793071 36.946807 -69.48649305 38.25458806 -66.625 39.5625 C-64.70546174 40.44668529 -62.7861877 41.33144443 -60.8671875 42.21679688 C-54.44269332 45.18038838 -54.44269332 45.18038838 -47.99835205 48.10037231 C-46.39811072 48.82077661 -44.81072423 49.56970855 -43.22802734 50.32788086 C-38.91972648 51.6275469 -35.22274442 49.79688637 -31.38085938 47.82275391 C-30.49644165 47.37203522 -29.61202393 46.92131653 -28.70080566 46.4569397 C-27.28656311 45.72415298 -27.28656311 45.72415298 -25.84375 44.9765625 C-24.86386108 44.47458344 -23.88397217 43.97260437 -22.87438965 43.45541382 C-20.80524648 42.39404595 -18.73761062 41.32973514 -16.67138672 40.26269531 C-13.51452518 38.63250076 -10.35343724 37.01076602 -7.19140625 35.390625 C-5.17943526 34.3572618 -3.16770826 33.32342338 -1.15625 32.2890625 C-0.21342163 31.80458649 0.72940674 31.32011047 1.70080566 30.82095337 C5.19745296 29.01406028 8.64586359 27.21538893 12.00976562 25.16943359 C14 24 14 24 16 24 C16 24.99 16 25.98 16 27 C15.2879541 27.3810791 14.5759082 27.7621582 13.84228516 28.15478516 C11.6820485 29.31108007 9.52217169 30.46804737 7.36254883 31.62548828 C4.85204831 32.97010716 2.33857273 34.30894326 -0.17700195 35.64404297 C-6.01287083 38.74780895 -11.82836703 41.86904178 -17.54724121 45.1847229 C-19.3026667 46.2017375 -21.06447426 47.20668653 -22.82861328 48.20849609 C-25.02731212 49.46302334 -27.21269875 50.74124739 -29.38232422 52.04541016 C-36.43524095 56.02394948 -36.43524095 56.02394948 -40.13745117 55.96728516 C-42.60595726 55.23248777 -44.70811734 54.18262076 -47 53 C-48.23826436 52.43077033 -49.47952014 51.86802507 -50.72290039 51.31005859 C-55.15602032 49.30681947 -59.54621694 47.2179668 -63.9375 45.125 C-65.44965996 44.40971249 -66.96202842 43.69486558 -68.47460938 42.98046875 C-74.6465547 40.06057007 -80.80928462 37.11991133 -86.94140625 34.1171875 C-87.69236572 33.74964355 -88.4433252 33.38209961 -89.21704102 33.00341797 C-91.48706786 31.72588677 -92.78348139 30.66502145 -93.6015625 28.15234375 C-94.01217426 25.93423515 -94.27342643 23.81665193 -94.375 21.5625 C-94.42398438 20.82128906 -94.47296875 20.08007812 -94.5234375 19.31640625 C-93.70010958 15.67287301 -91.8752038 14.34139516 -89 12 C-86.02157147 10.3499703 -82.94915804 9.00674883 -79.8125 7.6875 C-78.99330078 7.32849609 -78.17410156 6.96949219 -77.33007812 6.59960938 C-71.31383929 4 -71.31383929 4 -69 4 C-68.7525 5.60875 -68.7525 5.60875 -68.5 7.25 C-67.8234873 9.5802104 -67.34719225 10.7222462 -65.4375 12.25 C-63.33006299 13.33770942 -61.2297567 14.19190026 -59 15 C-58.23171875 15.2990625 -57.4634375 15.598125 -56.671875 15.90625 C-44.2392577 20.23761345 -29.75584852 18.6263155 -17.9375 13.09765625 C-15.92798438 12.04007531 -15.92798438 12.04007531 -14.140625 10.4140625 C-11.31223639 8.5456744 -9.11156527 8.49519376 -5.75 8.3125 C-4.67234375 8.24675781 -3.5946875 8.18101562 -2.484375 8.11328125 C-1.25460938 8.05720703 -1.25460938 8.05720703 0 8 C0 5.36 0 2.72 0 0 Z " fill="#ECEEF1" transform="translate(212,232)"/>
<path d="M0 0 C7 0 7 0 10 2 C10.70125 1.71125 11.4025 1.4225 12.125 1.125 C17.20001326 -0.86087475 22.05119469 -0.64960177 27.1875 1.0625 C31.93906965 4.33580353 35.77625845 8.62849643 38 14 C39.26889944 21.61339665 37.24046928 27.67973652 33 34 C28.57914384 38.31559768 25.12415344 39.15003613 19.0625 39.1875 C17.50208984 39.20876953 17.50208984 39.20876953 15.91015625 39.23046875 C13.00111024 39.00008793 11.5160677 38.36395398 9 37 C9.01047363 37.68626465 9.02094727 38.3725293 9.03173828 39.07958984 C9.07321874 42.17802289 9.09930069 45.27639761 9.125 48.375 C9.14175781 49.45523438 9.15851563 50.53546875 9.17578125 51.6484375 C9.18222656 52.6796875 9.18867188 53.7109375 9.1953125 54.7734375 C9.20578613 55.72653809 9.21625977 56.67963867 9.22705078 57.66162109 C9 60 9 60 7 62 C4.69 62 2.38 62 0 62 C0 41.54 0 21.08 0 0 Z " fill="#E8EAED" transform="translate(382,223)"/>
<path d="M0 0 C1.134375 0.020625 2.26875 0.04125 3.4375 0.0625 C3.7675 1.0525 4.0975 2.0425 4.4375 3.0625 C5.22125 2.5675 6.005 2.0725 6.8125 1.5625 C11.55962569 -0.40182787 15.37266416 -0.85907163 20.4375 0.0625 C26.17362983 2.50550069 30.43482164 6.05032815 32.8515625 11.859375 C34.49677636 18.04537913 34.04921459 24.34428946 31.5625 30.23828125 C29.16738466 34.1220273 25.49314347 37.03467827 21.4375 39.0625 C19.50289059 39.1853777 17.56347096 39.23804888 15.625 39.25 C14.06845703 39.27126953 14.06845703 39.27126953 12.48046875 39.29296875 C9.38106407 39.05822565 7.27158624 38.27180199 4.4375 37.0625 C4.44797363 37.74876465 4.45844727 38.4350293 4.46923828 39.14208984 C4.51071874 42.24052289 4.53680069 45.33889761 4.5625 48.4375 C4.57925781 49.51773438 4.59601563 50.59796875 4.61328125 51.7109375 C4.61972656 52.7421875 4.62617188 53.7734375 4.6328125 54.8359375 C4.64328613 55.78903809 4.65375977 56.74213867 4.66455078 57.72412109 C4.4375 60.0625 4.4375 60.0625 2.4375 62.0625 C-0.6875 62.1875 -0.6875 62.1875 -3.5625 62.0625 C-3.71610551 54.12645981 -3.86428712 46.19034515 -4.0054636 38.25407505 C-4.07118325 34.56931052 -4.13880074 30.88460084 -4.21069336 27.19995117 C-4.27995021 23.64686412 -4.34430302 20.09371957 -4.40519524 16.54047966 C-4.42934925 15.18201384 -4.45529758 13.82357875 -4.48303413 12.46518135 C-4.52145576 10.56875504 -4.55301816 8.67219346 -4.58422852 6.77563477 C-4.61420677 5.15347801 -4.61420677 5.15347801 -4.64479065 3.49855042 C-4.51319367 -0.39711537 -4.0438098 0.07094403 0 0 Z " fill="#EEF0F3" transform="translate(261.5625,222.9375)"/>
<path d="M0 0 C7 0 7 0 8.9375 1.5 C9.288125 1.995 9.63875 2.49 10 3 C10.763125 2.505 11.52625 2.01 12.3125 1.5 C17.28414245 -0.52236303 21.69569863 -0.75098156 27 0 C30.4375 2 30.4375 2 33 4 C37.05685332 4.35936913 37.05685332 4.35936913 40.125 2 C44.63990742 -0.70701087 48.86907418 -0.78690255 54 0 C60.029321 1.84085615 62.8429227 4.48377916 66 10 C66.45410156 13.34326172 66.45410156 13.34326172 66.390625 16.9296875 C66.37773438 18.21875 66.36484375 19.5078125 66.3515625 20.8359375 C66.31814906 22.18230268 66.28428937 23.52865685 66.25 24.875 C66.22991356 26.24476569 66.21166655 27.61455966 66.1953125 28.984375 C66.1482806 32.32363986 66.08255864 35.66145562 66 39 C62.625 39.125 62.625 39.125 59 39 C56.36495923 36.36495923 56.73589407 35.11470438 56.69140625 31.44140625 C56.66626953 30.33345703 56.64113281 29.22550781 56.61523438 28.08398438 C56.58013744 25.74028883 56.54887434 23.39653266 56.52148438 21.05273438 C56.49505859 19.94349609 56.46863281 18.83425781 56.44140625 17.69140625 C56.42795166 16.67248291 56.41449707 15.65355957 56.40063477 14.60375977 C56.20847543 11.96936776 56.20847543 11.96936776 54.60058594 10.17138672 C52.53125777 8.65695161 51.23790723 8.56690485 48.6875 8.5625 C47.94886719 8.54316406 47.21023438 8.52382812 46.44921875 8.50390625 C42.52202719 9.2993661 40.84779679 10.07886939 38 13 C37.23624005 17.4304334 37.43838756 21.77130155 37.625 26.25 C37.65207031 27.47203125 37.67914062 28.6940625 37.70703125 29.953125 C37.77775162 32.97052741 37.87640884 35.9843757 38 39 C31.84765625 39.09765625 31.84765625 39.09765625 30 39 C28.27350843 37.27350843 28.82971999 34.92769055 28.7890625 32.57421875 C28.76070313 31.46755859 28.73234375 30.36089844 28.703125 29.22070312 C28.65130421 26.8771079 28.6069561 24.53333478 28.5703125 22.18945312 C28.539375 21.07892578 28.5084375 19.96839844 28.4765625 18.82421875 C28.45674316 17.80416748 28.43692383 16.78411621 28.41650391 15.7331543 C27.94469491 12.63708062 27.16228839 11.23586898 25 9 C22.67200102 8.36772751 22.67200102 8.36772751 20.125 8.5 C18.86042969 8.48453125 18.86042969 8.48453125 17.5703125 8.46875 C14.10472808 9.185041 12.51372845 10.52515028 10 13 C9.22571085 15.88044832 9.22571085 15.88044832 9.29296875 19.078125 C9.26396484 20.23828125 9.23496094 21.3984375 9.20507812 22.59375 C9.19927734 23.8003125 9.19347656 25.006875 9.1875 26.25 C9.16236328 27.47203125 9.13722656 28.6940625 9.11132812 29.953125 C9.05242288 32.96907333 9.01616624 35.98356903 9 39 C6.03 39 3.06 39 0 39 C0 26.13 0 13.26 0 0 Z " fill="#EAECEF" transform="translate(478,223)"/>
<path d="M0 0 C1.21945313 0.30421875 2.43890625 0.6084375 3.6953125 0.921875 C10.23499938 2.57445246 16.6356959 4.38926386 23 6.625 C23 8.275 23 9.925 23 11.625 C20.03 11.955 17.06 12.285 14 12.625 C14 11.635 14 10.645 14 9.625 C12.74445313 9.56441406 11.48890625 9.50382813 10.1953125 9.44140625 C-14.40139857 8.22360143 -14.40139857 8.22360143 -16 6.625 C-18.33297433 6.58407063 -20.66705225 6.58258277 -23 6.625 C-23 7.285 -23 7.945 -23 8.625 C-21.78268188 8.70802368 -21.78268188 8.70802368 -20.54077148 8.79272461 C-16.83949351 9.04666393 -13.13850025 9.30454595 -9.4375 9.5625 C-8.16068359 9.64951172 -6.88386719 9.73652344 -5.56835938 9.82617188 C-4.32763672 9.91318359 -3.08691406 10.00019531 -1.80859375 10.08984375 C-0.10401001 10.20767212 -0.10401001 10.20767212 1.63500977 10.32788086 C5.11459291 10.63511823 8.54697642 11.10100031 12 11.625 C11.505 13.11 11.505 13.11 11 14.625 C6.83805313 16.44371377 2.47458008 17.68207213 -1.87304688 18.984375 C-3.92804533 19.6033277 -5.97112389 20.25362107 -8.015625 20.90625 C-9.3013398 21.29413982 -10.5877766 21.6796463 -11.875 22.0625 C-13.02742188 22.41183594 -14.17984375 22.76117188 -15.3671875 23.12109375 C-24.86587642 24.43865383 -35.08497626 19.44502947 -44.0625 16.5 C-45.51484938 16.0269611 -46.96732244 15.55430174 -48.41992188 15.08203125 C-51.94805125 13.93405993 -55.47447902 12.78096072 -59 11.625 C-59.33 9.975 -59.66 8.325 -60 6.625 C-52.25953288 3.61904005 -44.51089133 1.35736143 -36.4375 -0.5625 C-34.31071215 -1.07481052 -32.18438387 -1.58903386 -30.05859375 -2.10546875 C-29.13361084 -2.32614014 -28.20862793 -2.54681152 -27.25561523 -2.77416992 C-17.8959845 -5.26730243 -9.39469561 -2.40329423 0 0 Z " fill="#ECEEF1" transform="translate(192,200.375)"/>
<path d="M0 0 C1.2065625 1.1446875 1.2065625 1.1446875 2.4375 2.3125 C1.23368552 4.80611571 -0.01678722 6.99393083 -1.5625 9.3125 C-3.59319262 8.30399872 -5.61117662 7.28616065 -7.60546875 6.20703125 C-12.55030481 3.71209575 -16.11961645 2.94093997 -21.6171875 3.66015625 C-24.00018571 4.45927412 -25.0407051 5.31890242 -26.5625 7.3125 C-27.30921628 11.41704667 -27.30921628 11.41704667 -26.5625 15.3125 C-22.00682612 20.29227565 -13.99411937 22.29603912 -7.83203125 24.6875 C-4.26737763 26.4591797 -2.18514007 28.34108051 0.4375 31.3125 C1.02660156 31.97507813 1.61570312 32.63765625 2.22265625 33.3203125 C4.49830904 37.05209039 4.03129162 41.10258412 3.4375 45.3125 C0.65815412 50.97808968 -3.65514552 54.95573458 -9.375 57.625 C-17.56908926 59.39235259 -24.16557593 58.32727787 -31.5625 54.3125 C-34.10626041 52.45010398 -36.27612185 50.49947041 -38.5625 48.3125 C-37.41076645 45.84449953 -36.51466435 44.26466435 -34.5625 42.3125 C-30.10832153 42.5532664 -27.91617675 44.56076523 -24.5625 47.3125 C-21.71114085 48.24707909 -19.05328163 48.47439399 -16.0625 48.5 C-15.3096875 48.51417969 -14.556875 48.52835938 -13.78125 48.54296875 C-11.24430365 48.27944791 -9.70896282 47.68132481 -7.5625 46.3125 C-5.2555746 43.43655164 -5.2555746 43.43655164 -5.5 39.875 C-6.23234046 36.14865443 -6.23234046 36.14865443 -9.25 34.25 C-11.75403822 33.03167913 -14.31657947 32.00397276 -16.89453125 30.94921875 C-31.75094595 24.82628745 -31.75094595 24.82628745 -35.7109375 18.46875 C-37.3836137 14.23334971 -37.08081146 9.77645747 -36.5625 5.3125 C-34.2458944 0.41198816 -31.28055262 -2.08775672 -26.5625 -4.6875 C-17.66758252 -7.5723381 -7.21686993 -5.96323525 0 0 Z " fill="#EBECEF" transform="translate(465.5625,204.6875)"/>
<path d="M0 0 C0.93682617 0.3259314 0.93682617 0.3259314 1.89257812 0.65844727 C4.75609303 1.64377406 7.62765798 2.60322547 10.5 3.5625 C11.48226562 3.90474609 12.46453125 4.24699219 13.4765625 4.59960938 C22.98706943 7.73807666 29.48824857 6.37703532 38.875 3.4375 C46.77169421 1 46.77169421 1 49 1 C49 7.93 49 14.86 49 22 C40.28783601 26.97837942 34.09346074 28.41158242 24.3125 28.4375 C23.34094971 28.44064209 22.36939941 28.44378418 21.3684082 28.44702148 C14.01124959 28.32474014 5.53732381 27.53732381 0 22 C-0.08700342 20.36527118 -0.10701063 18.72685945 -0.09765625 17.08984375 C-0.09443359 16.10048828 -0.09121094 15.11113281 -0.08789062 14.09179688 C-0.07951172 13.05087891 -0.07113281 12.00996094 -0.0625 10.9375 C-0.05798828 9.89271484 -0.05347656 8.84792969 -0.04882812 7.77148438 C-0.03699913 5.1809334 -0.02051689 2.59049441 0 0 Z " fill="#F0F2F5" transform="translate(147,219)"/>
<path d="M0 0 C5.04036105 2.78646375 8.51815253 6.78411412 10.6328125 12.14453125 C11.12139529 15.070885 10.99529074 17.14114016 10.6328125 20.14453125 C8.6328125 22.14453125 8.6328125 22.14453125 5.92724609 22.37158203 C4.80656738 22.3611084 3.68588867 22.35063477 2.53125 22.33984375 C0.71367187 22.33017578 0.71367187 22.33017578 -1.140625 22.3203125 C-2.41164063 22.30355469 -3.68265625 22.28679687 -4.9921875 22.26953125 C-6.2709375 22.26050781 -7.5496875 22.25148437 -8.8671875 22.2421875 C-12.03403917 22.21855428 -15.20052174 22.18560754 -18.3671875 22.14453125 C-15.4875899 26.72201634 -15.4875899 26.72201634 -11.3671875 30.14453125 C-4.94103425 31.13813326 0.70029801 29.50070722 6.6328125 27.14453125 C7.2928125 28.46453125 7.9528125 29.78453125 8.6328125 31.14453125 C7.55737467 32.13236319 6.47208033 33.10947068 5.3828125 34.08203125 C4.77953125 34.62730469 4.17625 35.17257812 3.5546875 35.734375 C-1.63968682 39.54569437 -9.26467103 38.90278897 -15.3671875 38.14453125 C-20.29200295 35.97977721 -24.34058944 32.09317287 -26.7421875 27.2578125 C-28.51394796 21.26704743 -28.33783237 14.55129843 -25.9296875 8.76953125 C-20.34959102 -0.5241486 -10.09858666 -3.64948924 0 0 Z " fill="#EAECEF" transform="translate(363.3671875,223.85546875)"/>
<path d="M0 0 C3.47364332 2.55952666 5.01481862 4.66945586 6.375 8.75 C6.45858958 10.96089945 6.48231764 13.17426078 6.47265625 15.38671875 C6.46943359 16.68544922 6.46621094 17.98417969 6.46289062 19.32226562 C6.45453531 20.69401108 6.44607037 22.06575587 6.4375 23.4375 C6.43248335 24.82096195 6.42792073 26.20442563 6.42382812 27.58789062 C6.41202529 30.97530395 6.39556019 34.36263033 6.375 37.75 C2.41442467 37.83680713 -0.20102277 37.85706291 -3.625 35.75 C-4.615 36.41 -5.605 37.07 -6.625 37.75 C-10.0234375 38.12109375 -10.0234375 38.12109375 -14 38.1875 C-15.96066406 38.24744141 -15.96066406 38.24744141 -17.9609375 38.30859375 C-22.45069366 37.62412133 -23.82571535 36.23600055 -26.625 32.75 C-28.26489528 29.47020945 -28.41762258 26.2676721 -27.625 22.75 C-24.1651488 18.14028728 -19.0252853 15.46009035 -13.625 13.75 C-9.9639231 13.24468221 -6.31488021 12.94350186 -2.625 12.75 C-3.71284968 9.50016865 -3.71284968 9.50016865 -5.625 6.75 C-11.67770657 6.33257196 -15.1807657 7.18800739 -20.625 9.75 C-21.615 9.75 -22.605 9.75 -23.625 9.75 C-24.9535355 7.56182388 -25.68988328 6.30310336 -25.38671875 3.71875 C-24.625 1.75 -24.625 1.75 -21.375 0 C-14.51132883 -2.25485226 -6.80965235 -2.34815598 0 0 Z " fill="#EAECEF" transform="translate(579.625,224.25)"/>
<path d="M0 0 C0.66 0 1.32 0 2 0 C2 3.96 2 7.92 2 12 C5.3 12 8.6 12 12 12 C12 14.64 12 17.28 12 20 C8.7 20 5.4 20 2 20 C2.14040213 23.29198191 2.28706875 26.58347446 2.4375 29.875 C2.47681641 30.81214844 2.51613281 31.74929687 2.55664062 32.71484375 C2.61948242 34.05869141 2.61948242 34.05869141 2.68359375 35.4296875 C2.72025146 36.25710449 2.75690918 37.08452148 2.79467773 37.93701172 C2.88238327 40.06179429 2.88238327 40.06179429 4 42 C5.89533342 42.46523063 5.89533342 42.46523063 8.0625 42.625 C10.0115625 42.810625 10.0115625 42.810625 12 43 C12.33 45.31 12.66 47.62 13 50 C9.04603037 51.97698481 4.29880647 51.57069292 0 51 C-2.89683868 48.7984026 -4.39297231 47.21405538 -6 44 C-6.08471364 42.18658158 -6.10721083 40.37005839 -6.09765625 38.5546875 C-6.09282227 36.94013672 -6.09282227 36.94013672 -6.08789062 35.29296875 C-6.07951172 34.16503906 -6.07113281 33.03710938 -6.0625 31.875 C-6.05798828 30.73933594 -6.05347656 29.60367188 -6.04882812 28.43359375 C-6.03701615 25.62234362 -6.02054507 22.8111977 -6 20 C-7.98 20 -9.96 20 -12 20 C-11.57925683 15.09132973 -9.4784556 13.31666697 -6 10 C-3.70259259 6.78362963 -1.65707277 3.59032433 0 0 Z " fill="#EEF0F3" transform="translate(641,211)"/>
<path d="M0 0 C2.31 0 4.62 0 7 0 C7.33 0.99 7.66 1.98 8 3 C9.010625 2.505 10.02125 2.01 11.0625 1.5 C15.84748627 -0.53966081 19.97862133 -0.68812891 24.9375 1 C25.9584375 1.495 25.9584375 1.495 27 2 C27 6 27 6 25 9 C22.23078189 9.17391225 19.5885167 8.9298028 16.82421875 8.71484375 C13.05230431 9.09568712 11.66490963 10.34141053 9 13 C8.22571085 15.88044832 8.22571085 15.88044832 8.29296875 19.078125 C8.26396484 20.23828125 8.23496094 21.3984375 8.20507812 22.59375 C8.19927734 23.8003125 8.19347656 25.006875 8.1875 26.25 C8.16236328 27.47203125 8.13722656 28.6940625 8.11132812 29.953125 C8.05242288 32.96907333 8.01616624 35.98356903 8 39 C5.36 39 2.72 39 0 39 C0 26.13 0 13.26 0 0 Z " fill="#EEF0F3" transform="translate(304,223)"/>
<path d="M0 0 C6 0 6 0 7.875 1.5 C8.24625 1.995 8.6175 2.49 9 3 C9.66 2.505 10.32 2.01 11 1.5 C14.73361421 -0.3668071 17.93504099 -0.61806394 22 0 C25.5 1.5 25.5 1.5 28 3 C27.01 4.98 26.02 6.96 25 9 C23.77023437 8.93039063 23.77023437 8.93039063 22.515625 8.859375 C21.43796875 8.82328125 20.3603125 8.7871875 19.25 8.75 C18.18265625 8.70359375 17.1153125 8.6571875 16.015625 8.609375 C12.22231761 9.10073606 11.33626676 10.02477538 9 13 C8.36171531 15.88873888 8.36171531 15.88873888 8.390625 19.078125 C8.35839844 20.23828125 8.32617188 21.3984375 8.29296875 22.59375 C8.27169922 24.40359375 8.27169922 24.40359375 8.25 26.25 C8.22035156 27.47203125 8.19070313 28.6940625 8.16015625 29.953125 C8.08947598 32.96881644 8.03676825 35.9837355 8 39 C5.36 39 2.72 39 0 39 C0 26.13 0 13.26 0 0 Z " fill="#EEF0F3" transform="translate(596,223)"/>
<path d="M0 0 C4.14613048 1.79037453 6.20962547 3.85386952 8 8 C8.54223844 12.26044487 8.30065535 14.42096006 6.3125 18.25 C3.88505768 21.13668817 2.52481301 22.66840397 -1 24 C-5.68334 24.04955915 -9.06912808 23.62058128 -13 21 C-13.34057617 19.12060547 -13.34057617 19.12060547 -13.29296875 16.8671875 C-13.28330078 16.06152344 -13.27363281 15.25585938 -13.26367188 14.42578125 C-13.23853516 13.58402344 -13.21339844 12.74226562 -13.1875 11.875 C-13.17396484 11.02550781 -13.16042969 10.17601562 -13.14648438 9.30078125 C-13.11108219 7.20025163 -13.05727401 5.10004707 -13 3 C-8.32517427 0.51464961 -5.35085341 -0.58372946 0 0 Z " fill="#232326" transform="translate(279,231)"/>
<path d="M0 0 C3.63467079 1.62400184 4.77408696 2.66113044 7 6 C7.6772783 11.08746258 7.82467221 15.55682364 5.25 20.0625 C2.49991343 22.43063011 0.44828381 23.96987971 -3.25390625 24.046875 C-4.01574219 23.94890625 -4.77757812 23.8509375 -5.5625 23.75 C-6.32691406 23.66234375 -7.09132813 23.5746875 -7.87890625 23.484375 C-10 23 -10 23 -13 21 C-13.34057617 19.02880859 -13.34057617 19.02880859 -13.29296875 16.6484375 C-13.28330078 15.79765625 -13.27363281 14.946875 -13.26367188 14.0703125 C-13.23853516 13.18085938 -13.21339844 12.29140625 -13.1875 11.375 C-13.17396484 10.4778125 -13.16042969 9.580625 -13.14648438 8.65625 C-13.11106925 6.43690211 -13.06168461 4.21874812 -13 2 C-8.55787592 -0.33890956 -4.97489672 -0.58632711 0 0 Z " fill="#272729" transform="translate(404,231)"/>
<path d="M0 0 C0.66 0.33 1.32 0.66 2 1 C1.84015625 1.56589844 1.6803125 2.13179687 1.515625 2.71484375 C0.98807538 5.05284773 0.79861268 7.16832549 0.75 9.5625 C0.72421875 10.32691406 0.6984375 11.09132813 0.671875 11.87890625 C1.09153365 14.59169969 1.94459086 15.22398779 4 17 C5.8973218 18.1116724 5.8973218 18.1116724 8.02490234 19.05297852 C8.82938812 19.42669083 9.6338739 19.80040314 10.46273804 20.18544006 C11.32839386 20.57928391 12.19404968 20.97312775 13.0859375 21.37890625 C13.97987213 21.79164291 14.87380676 22.20437958 15.79483032 22.62962341 C18.65206929 23.946807 21.51350695 25.25458806 24.375 26.5625 C26.29453826 27.44668529 28.2138123 28.33144443 30.1328125 29.21679688 C36.55730668 32.18038838 36.55730668 32.18038838 43.00164795 35.10037231 C44.60188928 35.82077661 46.18927577 36.56970855 47.77197266 37.32788086 C52.08027352 38.6275469 55.77725558 36.79688637 59.61914062 34.82275391 C60.50355835 34.37203522 61.38797607 33.92131653 62.29919434 33.4569397 C63.71343689 32.72415298 63.71343689 32.72415298 65.15625 31.9765625 C66.13613892 31.47458344 67.11602783 30.97260437 68.12561035 30.45541382 C70.19475352 29.39404595 72.26238938 28.32973514 74.32861328 27.26269531 C77.48547482 25.63250076 80.64656276 24.01076602 83.80859375 22.390625 C85.82056474 21.3572618 87.83229174 20.32342338 89.84375 19.2890625 C90.78657837 18.80458649 91.72940674 18.32011047 92.70080566 17.82095337 C96.19745296 16.01406028 99.64586359 14.21538893 103.00976562 12.16943359 C105 11 105 11 107 11 C107 11.99 107 12.98 107 14 C106.2879541 14.3810791 105.5759082 14.7621582 104.84228516 15.15478516 C102.6820485 16.31108007 100.52217169 17.46804737 98.36254883 18.62548828 C95.85204831 19.97010716 93.33857273 21.30894326 90.82299805 22.64404297 C84.98712917 25.74780895 79.17163297 28.86904178 73.45275879 32.1847229 C71.6973333 33.2017375 69.93552574 34.20668653 68.17138672 35.20849609 C65.97268788 36.46302334 63.78730125 37.74124739 61.61767578 39.04541016 C54.56475905 43.02394948 54.56475905 43.02394948 50.86254883 42.96728516 C48.39404274 42.23248777 46.29188266 41.18262076 44 40 C42.76173564 39.43077033 41.52047986 38.86802507 40.27709961 38.31005859 C35.84397968 36.30681947 31.45378306 34.2179668 27.0625 32.125 C25.55034004 31.40971249 24.03797158 30.69486558 22.52539062 29.98046875 C16.3534453 27.06057007 10.19071538 24.11991133 4.05859375 21.1171875 C3.30763428 20.74964355 2.5566748 20.38209961 1.78295898 20.00341797 C-0.48456008 18.72729811 -1.78131191 17.66167166 -2.609375 15.15625 C-3.47006644 10.40523324 -3.98697008 5.68607388 -1.5 1.4375 C-0.7575 0.7259375 -0.7575 0.7259375 0 0 Z " fill="#E0E2E5" transform="translate(121,245)"/>
<path d="M0 0 C0.12375 1.19625 0.2475 2.3925 0.375 3.625 C0.69918797 6.30777287 1.13363318 8.36945645 2.0625 10.9375 C3.29006515 14.94754614 3.53962785 18.83375559 3 23 C2.34 23.99 1.68 24.98 1 26 C-0.6396875 26.2165625 -0.6396875 26.2165625 -2.3125 26.4375 C-6.46898982 27.07154082 -7.8177904 28.41983005 -11 31 C-13.3125 30.75 -13.3125 30.75 -15 30 C-14.03320312 29.34257812 -14.03320312 29.34257812 -13.046875 28.671875 C-9.87814858 24.53559853 -10.32436419 20.32704584 -10.25 15.25 C-10.22035156 14.26644531 -10.19070312 13.28289062 -10.16015625 12.26953125 C-10.08957589 9.84627224 -10.03682299 7.42396846 -10 5 C-10.72445312 5.28875 -11.44890625 5.5775 -12.1953125 5.875 C-21.79789104 9.56239016 -21.79789104 9.56239016 -27 9 C-26.67 8.01 -26.34 7.02 -26 6 C-24.14575195 5.10864258 -24.14575195 5.10864258 -21.73828125 4.39453125 C-20.86623047 4.13349609 -19.99417969 3.87246094 -19.09570312 3.60351562 C-17.71801758 3.21196289 -17.71801758 3.21196289 -16.3125 2.8125 C-15.41337891 2.53986328 -14.51425781 2.26722656 -13.58789062 1.98632812 C-8.94987942 0.62861245 -4.88477599 -0.36453552 0 0 Z " fill="#27272A" transform="translate(206,215)"/>
<path d="M0 0 C0 2.97 0 5.94 0 9 C-4.91046959 11.40512796 -8.40391464 12.54863582 -14 12 C-16 10 -16 10 -16.125 7.375 C-16.08375 6.59125 -16.0425 5.8075 -16 5 C-10.6319414 2.1361474 -6.1962852 0 0 0 Z " fill="#333335" transform="translate(577,244)"/>
<path d="M0 0 C3.69960479 0.70525584 5.30890454 2.43794546 7.41796875 5.4609375 C7.41796875 6.4509375 7.41796875 7.4409375 7.41796875 8.4609375 C0.81796875 8.4609375 -5.78203125 8.4609375 -12.58203125 8.4609375 C-10.71508652 0.99315858 -7.29080518 -0.28000138 0 0 Z " fill="#242426" transform="translate(357.58203125,230.5390625)"/>
<path d="M0 0 C0.66 0 1.32 0 2 0 C2.12375 1.19625 2.2475 2.3925 2.375 3.625 C2.69918797 6.30777287 3.13363318 8.36945645 4.0625 10.9375 C5.30816308 15.00666607 5.16884609 18.77884771 5 23 C2.36 23 -0.28 23 -3 23 C-3.22094788 17.4763031 -2.89803884 13.24751913 -1 8 C-0.55847189 5.33627547 -0.2780603 2.6879162 0 0 Z " fill="#E8EAED" transform="translate(204,215)"/>
<path d="M0 0 C2.33294775 -0.04241723 4.66702567 -0.04092937 7 0 C7.33 0.33 7.66 0.66 8 1 C9.63358927 1.21573941 11.27524278 1.3711249 12.91796875 1.5 C13.92537109 1.5825 14.93277344 1.665 15.97070312 1.75 C17.56301758 1.87375 17.56301758 1.87375 19.1875 2 C31.83731494 3.0013459 31.83731494 3.0013459 37 4 C33.27353025 6.48431316 31.89781996 6.08425984 27.5 5.6875 C26.16550098 5.57647316 24.83085624 5.46718822 23.49609375 5.359375 C22.77921387 5.29943359 22.06233398 5.23949219 21.32373047 5.17773438 C17.07448896 4.8527241 12.81854975 4.65102358 8.5625 4.4375 C7.71558594 4.39391357 6.86867187 4.35032715 5.99609375 4.30541992 C3.99744973 4.20256066 1.99873278 4.10111996 0 4 C0 2.68 0 1.36 0 0 Z " fill="#525255" transform="translate(169,206)"/>
<path d="M0 0 C5.1692853 0.66326879 9.62251365 2.91924657 14.3125 5.0625 C15.56643555 5.62807617 15.56643555 5.62807617 16.84570312 6.20507812 C18.89927262 7.13211807 20.95056287 8.06386878 23 9 C21.68 9.99 20.36 10.98 19 12 C10.09 8.04 10.09 8.04 1 4 C1.33 3.01 1.66 2.02 2 1 C1.34 0.67 0.68 0.34 0 0 Z " fill="#4B4B4E" transform="translate(148,270)"/>
<path d="M0 0 C7.66795502 2.33937611 14.77137274 5.54768806 22 9 C21.01 9.33 20.02 9.66 19 10 C18.34 9.67 17.68 9.34 17 9 C16.67 9.66 16.34 10.32 16 11 C13.51194078 9.93411663 11.03596485 8.84881938 8.5625 7.75 C7.85544922 7.44964844 7.14839844 7.14929688 6.41992188 6.83984375 C4.37890625 5.921875 4.37890625 5.921875 1 4 C0.28881836 1.87988281 0.28881836 1.87988281 0 0 Z " fill="#6E6F71" transform="translate(124,259)"/>
<path d="M0 0 C2.33294775 -0.04241723 4.66702567 -0.04092937 7 0 C7.33 0.33 7.66 0.66 8 1 C10.32817964 1.36760731 12.6618385 1.70241581 15 2 C15 2.33 15 2.66 15 3 C10.05 3.33 5.1 3.66 0 4 C0 2.68 0 1.36 0 0 Z " fill="#252528" transform="translate(169,206)"/>
<path d="M0 0 C5.06998019 0.65419099 9.41990777 2.8546409 14 5 C13.01 5.33 12.02 5.66 11 6 C10.34 5.67 9.68 5.34 9 5 C9 5.66 9 6.32 9 7 C3.25 5.25 3.25 5.25 1 3 C1.33 2.34 1.66 1.68 2 1 C1.34 0.67 0.68 0.34 0 0 Z " fill="#5F6063" transform="translate(148,270)"/>
<path d="M0 0 C1.98 0.66 3.96 1.32 6 2 C6 2.66 6 3.32 6 4 C8.475 4.99 8.475 4.99 11 6 C7.9993581 7.26950234 6.94815444 6.98068499 3.8125 5.8125 C1 4 1 4 0.125 1.8125 C0.08375 1.214375 0.0425 0.61625 0 0 Z " fill="#494A4D" transform="translate(124,259)"/>
<path d="M0 0 C0 0.99 0 1.98 0 3 C-3.96 4.98 -3.96 4.98 -8 7 C-6.53112033 2.34854772 -6.53112033 2.34854772 -4 0.6875 C-2 0 -2 0 0 0 Z " fill="#DADCDF" transform="translate(228,256)"/>
<path d="M0 0 C2.31 0.33 4.62 0.66 7 1 C7 1.66 7 2.32 7 3 C7.66 3 8.32 3 9 3 C9 3.66 9 4.32 9 5 C5.65626525 4.44271087 2.96687001 3.64826111 0 2 C0 1.34 0 0.68 0 0 Z " fill="#2C2C2F" transform="translate(141,268)"/>
<path d="M0 0 C0.66 0.33 1.32 0.66 2 1 C0.70700306 3.88437779 -0.65941363 5.87219421 -3 8 C-2.25 2.25 -2.25 2.25 0 0 Z " fill="#CCCED1" transform="translate(121,245)"/>
</svg>
